OpenSim_Sub06_CSBaseline_RCS.mot
version=1
nRows=68
nColumns=11
inDegrees=no
endheader
time	Top_Thigh	Med_Thigh	Bot_Thigh	Top_Shank	2nd_Top_Shank	2nd_Bot_Shank	Bot_Shank	BNOx	BNOy	BNOZ
21.23000000	1889.82104192	2006.15894167	1750.28018074	1363.37550831	1490.52285888	1283.16765988	1262.57219261	79.19148000	-69.71375830	136.01649423
21.24000000	1888.49773854	2006.70012856	1750.91137492	1363.46127765	1485.90004691	1280.66561074	1260.94625428	79.70297598	-69.62870884	133.57188738
21.25000000	1887.02514412	2007.49087227	1751.63540381	1363.46038034	1480.86079847	1277.93405408	1259.24262694	80.27619381	-69.51584132	131.30314106
21.26000000	1885.43432591	2008.50566093	1752.43645497	1363.38110460	1475.49760068	1275.01702896	1257.47626336	80.90876921	-69.37344452	129.18193161
21.27000000	1883.75635117	2009.71898266	1753.29871596	1363.23173864	1469.90294063	1271.95857444	1255.66211634	81.59833791	-69.19980721	127.17993538
21.28000000	1882.02228716	2011.10532558	1754.20637434	1363.02057070	1464.16930543	1268.80272958	1253.81513866	82.34253563	-68.99321816	125.26882871
21.29000000	1880.26320112	2012.63917780	1755.14361766	1362.75588898	1458.38918219	1265.59353344	1251.95028311	83.13899811	-68.75196617	123.42028795
21.30000000	1878.51016031	2014.29502745	1756.09463349	1362.44598170	1452.65505801	1262.37502509	1250.08250247	83.98536108	-68.47434000	121.60598944
21.31000000	1876.79423198	2016.04736266	1757.04360937	1362.09913710	1447.05941999	1259.19124359	1248.22674954	84.87926024	-68.15862842	119.79760953
21.32000000	1875.14648339	2017.87067153	1757.97473287	1361.72364338	1441.69475525	1256.08622800	1246.39797709	85.81833135	-67.80312023	117.96682456
21.33000000	1873.59798178	2019.73944219	1758.87219155	1361.32778876	1436.65355089	1253.10401737	1244.61113791	86.80021011	-67.40610418	116.08531088
21.34000000	1872.17979442	2021.62816276	1759.72017295	1360.91986148	1432.02829401	1250.28865077	1242.88118480	87.82253226	-66.96586907	114.12474483
21.35000000	1870.92298856	2023.51132136	1760.50286465	1360.50814974	1427.91147172	1247.68416727	1241.22307053	88.88293353	-66.48070367	112.05680276
21.36000000	1869.85863145	2025.36340612	1761.20445419	1360.10094177	1424.39557113	1245.33460592	1239.65174789	89.97904963	-65.94889674	109.85316101
21.37000000	1869.01779034	2027.15890514	1761.80912914	1359.70652578	1421.57307933	1243.28400578	1238.18216968	91.10851631	-65.36873708	107.48549592
21.38000000	1868.43153249	2028.87230656	1762.30107706	1359.33319000	1419.53648344	1241.57640592	1236.82928867	92.26896928	-64.73851346	104.92548385
21.39000000	1868.13092515	2030.47809848	1762.66448549	1358.98922265	1418.37827056	1240.25584540	1235.60805766	93.45804427	-64.05651465	102.14480114
21.40000000	1868.14703558	2031.95076904	1762.88354201	1358.68291195	1418.19092780	1239.36636328	1234.53342942	94.67337701	-63.32102943	99.11512413
21.41000000	1868.51093102	2033.26480635	1762.94243416	1358.42254611	1419.06694225	1238.95199862	1233.62035675	95.91260323	-62.53034658	95.80812916
21.42000000	1869.25367874	2034.39469854	1762.82534950	1358.21641336	1421.09880103	1239.05679047	1232.88379243	97.17335865	-61.68275487	92.19549259
21.43000000	1870.40634598	2035.31493371	1762.51647560	1358.07280192	1424.37899125	1239.72477791	1232.33868925	98.45327900	-60.77654309	88.24889075
21.44000000	1872	2036	1762	1358	1429	1241	1232	99.75000000	-59.81000000	83.94000000
21.45000000	1874.04016378	2036.43618968	1761.26831427	1358.00727848	1434.99478986	1242.91295962	1231.88089475	101.05726901	-58.79058585	79.30184285
21.46000000	1876.43018319	2036.65701164	1760.34662594	1358.10783885	1442.15822527	1245.44001498	1231.98741274	102.35327983	-57.76244673	74.61282653
21.47000000	1879.04785984	2036.70777895	1759.26834654	1358.31586523	1450.22564613	1248.54398813	1232.32381050	103.61233790	-56.77890020	70.21270445
21.48000000	1881.77099533	2036.63380466	1758.06688762	1358.64554176	1458.93239234	1252.18770110	1232.89434456	104.80874867	-55.89326382	66.44123001
21.49000000	1884.47739127	2036.48040181	1756.77566071	1359.11105257	1468.01380381	1256.33397592	1233.70327145	105.91681756	-55.15885515	63.63815661
21.50000000	1887.04484925	2036.29288347	1755.42807733	1359.72658180	1477.20522044	1260.94563464	1234.75484771	106.91085000	-54.62899173	62.14323766
21.51000000	1889.35117088	2036.11656269	1754.05754903	1360.50631359	1486.24198215	1265.98549930	1236.05332984	107.76515144	-54.35699113	62.29622657
21.52000000	1891.27415776	2035.99675253	1752.69748734	1361.46443207	1494.85942882	1271.41639192	1237.60297440	108.45402731	-54.39617091	64.43687673
21.53000000	1892.69161150	2035.97876603	1751.38130380	1362.61512137	1502.79290037	1277.20113456	1239.40803790	108.95178304	-54.79984862	68.90494156
21.54000000	1893.49707158	2036.10271193	1750.14031377	1363.96722170	1509.79540085	1283.28866098	1241.46586893	109.23381814	-55.61265990	75.91454744
21.55000000	1893.74654936	2036.35497143	1748.98419261	1365.47440453	1515.80229229	1289.48452787	1243.70250108	109.28682683	-56.78961165	84.38289585
21.56000000	1893.59190587	2036.69022940	1747.90984923	1367.05779477	1520.85651811	1295.50970710	1246.00189589	109.10416660	-58.23283459	92.46207213
21.57000000	1893.18624100	2037.06276104	1746.91402753	1368.63809666	1525.00241222	1301.08407733	1248.24747116	108.67928109	-59.84377604	98.29427264
21.58000000	1892.68265461	2037.42684153	1745.99347143	1370.13601444	1528.28430851	1305.92751718	1250.32264468	108.00561392	-61.52388331	100.02169373
21.59000000	1892.23424660	2037.73674608	1745.14492482	1371.47225235	1530.74654088	1309.75990529	1252.11083422	107.07660871	-63.17460373	95.78653174
21.60000000	1891.99411683	2037.94674988	1744.36513161	1372.56751464	1532.43344323	1312.30112032	1253.49545758	105.88570909	-64.69738460	83.73098302
21.61000000	1892.11134217	2038.01254379	1743.65094873	1373.34484868	1533.39018100	1313.28175124	1254.36396033	104.42720167	-65.99621038	62.07094137
21.62000000	1892.64247013	2037.92237901	1743.00183254	1373.78119404	1533.68104480	1312.67872491	1254.69642728	102.71476212	-67.03341938	30.71734186
21.63000000	1893.55151883	2037.69706705	1742.41983885	1373.90738247	1533.38945041	1310.71530609	1254.56558245	100.78145510	-67.82970382	-8.72383913
21.64000000	1894.79848341	2037.35883511	1741.90713651	1373.75658885	1532.59964514	1307.62546985	1254.04817765	98.66118829	-68.40829305	-54.57292780
21.65000000	1896.34335897	2036.92991039	1741.46589433	1373.36198808	1531.39587632	1303.64319131	1253.22096471	96.38786938	-68.79241641	-105.15025033
21.66000000	1898.14614064	2036.43252006	1741.09828116	1372.75675504	1529.86239126	1299.00244553	1252.16069544	93.99540604	-69.00530323	-158.77613292
21.67000000	1900.16682354	2035.88889133	1740.80646582	1371.97406462	1528.08343727	1293.93720761	1250.94412166	91.51770594	-69.07018286	-213.77090174
21.68000000	1902.36540278	2035.32125138	1740.59261715	1371.04709171	1526.14326168	1288.68145265	1249.64799518	88.98867676	-69.01028463	-268.45488298
21.69000000	1904.70187350	2034.75182741	1740.45890398	1370.00901120	1524.12611180	1283.46915572	1248.34906783	86.44222618	-68.84883790	-321.14840284
21.70000000	1907.13623081	2034.20284661	1740.40749513	1368.89299797	1522.11623495	1278.53429193	1247.12409141	83.91226188	-68.60907200	-370.17178749
21.71000000	1909.62846983	2033.69653617	1740.44055944	1367.73222691	1520.19787844	1274.11083636	1246.04981775	81.43269153	-68.31421627	-413.84536314
21.72000000	1912.13858568	2033.25512327	1740.56026575	1366.55987292	1518.45528959	1270.43276410	1245.20299867	79.03742282	-67.98750005	-450.48945595
21.73000000	1914.62657348	2032.90083512	1740.76878289	1365.40911088	1516.97271572	1267.73405024	1244.66038597	76.76036341	-67.65215269	-478.42439212
21.74000000	1917.05242836	2032.65589890	1741.06827967	1364.31311567	1515.83440414	1266.24866987	1244.49873148	74.63542099	-67.33140352	-495.97049785
21.75000000	1919.37614542	2032.54254181	1741.46092495	1363.30506219	1515.12460217	1266.21059808	1244.79478702	72.69650323	-67.04848190	-501.44809930
21.76000000	1921.55771980	2032.58299103	1741.94888755	1362.41812533	1514.92755713	1267.85380996	1245.62530440	70.97751781	-66.82661714	-493.17752268
21.77000000	1923.55714662	2032.79947376	1742.53433630	1361.68547997	1515.32751633	1271.41228060	1247.06703544	69.51237241	-66.68903861	-469.47909417
21.78000000	1925.33442098	2033.21421718	1743.21944003	1361.14030099	1516.40872709	1277.11998509	1249.19673195	68.33497471	-66.65897564	-428.67313995
21.79000000	1926.84953802	2033.84944850	1744.00636758	1360.81576330	1518.25543673	1285.21089852	1252.09114576	67.47923237	-66.75965757	-369.07998622
21.80000000	1928.06249285	2034.72739489	1744.89728778	1360.74504178	1520.95189256	1295.91899597	1255.82702868	66.97905308	-67.01431374	-289.01995916
21.81000000	1928.93328060	2035.87028356	1745.89436945	1360.96131131	1524.58234190	1309.47825255	1260.48113252	66.86834452	-67.44617350	-186.81338495
21.82000000	1929.41912875	2037.26713705	1746.98351287	1361.47790500	1529.11385750	1325.74594119	1266.01900776	67.15614186	-68.05882010	-63.46662282
21.83000000	1929.46229522	2038.72738136	1748.06262522	1362.20083614	1533.87974076	1342.54183612	1271.80474129	67.71695040	-68.74957554	65.48580861
21.84000000	1929	2040	1749	1363	1538	1357	1277	68.38000000	-69.38000000	179.62000000
21.85000000	1927.99293106	2040.88346129	1749.69121673	1363.76458094	1540.77272040	1366.83821365	1280.93388314	69.00395123	-69.83885457	262.65188078
21.86000000	1926.49566339	2041.37435490	1750.14108836	1364.46102861	1542.20893746	1372.11119760	1283.60582954	69.56532412	-70.12381170	314.87147361
21.87000000	1924.58624377	2041.51880082	1750.38173621	1365.07510899	1542.49792428	1373.45790731	1285.18286293	70.07010356	-70.25977167	340.71232448
21.88000000	1922.34271896	2041.36291905	1750.44528158	1365.59258805	1541.82895394	1371.51729821	1285.83200707	70.52427444	-70.27163477	344.60797936
21.89000000	1919.84313572	2040.95282959	1750.36384579	1365.99923178	1540.39129954	1366.92832577	1285.72028568	70.93382162	-70.18430127	330.99198423
21.90000000	1917.16554083	2040.33465245	1750.16955015	1366.28080614	1538.37423417	1360.32994542	1285.01472249	71.30473001	-70.02267147	304.29788508
